<svg width="161" height="45" viewBox="0 0 161 45" fill="none" xmlns="http://www.w3.org/2000/svg">
<path d="M9.06733 0.255369C8.92567 0.437799 8.77915 5.12016 8.77915 10.739V20.8091H6.02914L5.88747 15.9748C5.79466 12.1924 5.60907 11.2072 5.05223 11.2072C4.49539 11.2072 4.29995 12.1924 4.20715 15.9748L4.06554 20.8091H2.7125C1.45717 20.8091 1.35948 20.6875 1.24713 18.018C1.14944 16.5038 0.914983 15.2754 0.636563 15.2754C0.358143 15.2754 0.148111 18.1274 0.0308818 22.3841C-0.0619249 28.5016 0.030877 29.5475 0.636563 29.5475C1.24225 29.5475 1.33502 28.8421 1.33502 26.3368C1.33502 23.199 1.33508 23.1382 2.73695 23.1382H4.08992L4.2316 28.1975C4.3244 32.2779 4.51001 33.3238 5.07661 33.3238C5.64322 33.3238 5.81911 32.2779 5.91192 28.1975L6.05353 23.1382H8.80354L8.90127 33.7373C8.99407 40.3778 9.22364 44.3852 9.50206 44.3852C9.78048 44.3852 10.0247 40.3778 10.1126 33.7373L10.2103 23.1382H13.0091V29.0793C13.0091 35.0752 13.3853 37.0576 14.3622 36.2974C14.6846 36.0056 14.8506 33.5549 14.8506 29.4806V23.1382H16.2574C17.6544 23.1382 17.6544 23.199 17.6544 26.3368C17.6544 28.7692 17.7912 29.5475 18.3529 29.5475C18.9146 29.5475 19.0513 28.7874 19.0513 26.3368C19.0513 23.199 19.0513 23.1382 20.4532 23.1382H21.8062L21.9479 28.1975C22.0407 32.2779 22.2263 33.3238 22.7929 33.3238C23.3596 33.3238 23.5354 32.2779 23.6233 28.1975L23.7699 23.1382H26.4759L26.6175 30.1252C26.7103 34.315 26.94 37.1123 27.2184 37.1123C27.4968 37.1123 27.741 34.315 27.829 30.1252L27.9706 23.1382H31.2335L31.1455 32.509C31.1455 37.6353 31.2335 42.0014 31.3311 42.1778C32.2641 43.3392 32.5914 40.9008 32.5914 32.3995V23.1382H35.3951V27.1516C35.3951 30.8002 35.8836 32.5637 36.6504 31.6394C36.7921 31.463 36.8849 29.4806 36.8361 27.2185L36.7481 23.1382H38.3796C40.011 23.1382 40.0648 23.199 40.0648 25.5219C40.0648 28.5624 41.1833 28.3192 41.3641 25.2908C41.5106 23.3753 41.6522 23.1382 42.8636 23.1382H44.2606L44.3583 32.5637C44.4951 40.542 44.5927 42.0561 45.1984 42.0561C45.8041 42.0561 45.9018 40.542 46.0337 32.5637L46.1314 23.1382H48.9302V28.38C48.9302 32.6367 49.0719 33.6157 49.6288 33.6157C50.1856 33.6157 50.3272 32.6306 50.3272 28.38V23.1382H53.1407V30.0036C53.1407 33.7921 53.2824 37.1123 53.4631 37.3008C53.6439 37.4893 54.0248 37.4164 54.396 37.0697C54.8161 36.6015 55.0066 34.6373 55.0066 29.7725V23.1382H56.4037C57.7127 23.1382 57.8104 23.2537 57.8104 25.4672C57.8104 27.1516 57.996 27.7962 58.5089 27.7962C59.1194 27.7962 59.2074 26.9205 59.1194 22.4388C59.0218 18.8267 58.7873 17.0268 58.4112 16.8443C58.0351 16.6619 57.8104 17.3126 57.8104 18.7173C57.8104 20.6328 57.7127 20.8091 56.4037 20.8091H55.0506L54.9138 14.2842C54.7722 8.58026 54.6794 7.71067 53.9809 7.53433C53.2824 7.35798 53.1407 7.94174 53.1407 14.0592V20.8091H50.3321V15.8653C50.3321 11.8457 50.2002 10.9093 49.6336 10.9093C49.067 10.9093 48.9351 11.8457 48.9351 15.8653V20.8091H46.1363V12.1924C46.1363 3.81276 45.809 1.64792 44.7833 2.40805C44.456 2.70602 44.2655 5.84989 44.2655 11.8458V20.8091H42.9125C41.7011 20.8091 41.5155 20.5781 41.369 18.9484C41.1882 16.2666 40.0696 16.0903 40.0696 18.7173C40.0696 20.7544 40.0159 20.8091 38.3845 20.8091H36.753L36.841 17.4342C36.8898 15.5673 36.797 13.7065 36.6114 13.3599C35.9129 11.9005 35.4 13.4146 35.4 17.0815V20.8091H32.5962V11.8458C32.5962 3.57559 32.269 1.19183 31.336 2.3533C31.2383 2.52965 31.1504 6.7742 31.1504 11.7302L31.2384 20.8091H27.9315V14.12C27.9315 8.5316 27.7898 7.43094 27.2232 7.43094C26.6566 7.43094 26.5248 8.53768 26.5248 14.12V20.8091H23.7747L23.6282 15.9748C23.5403 12.1924 23.3498 11.2072 22.7978 11.2072C22.2459 11.2072 22.0456 12.1924 21.9528 15.9748L21.8111 20.8091H20.4581C19.2028 20.8091 19.1051 20.6875 18.9927 18.018C18.895 16.5038 18.6606 15.2754 18.3822 15.2754C18.1037 15.2754 17.8937 16.4916 17.7716 18.018C17.6397 20.6875 17.542 20.8091 16.2329 20.8091H14.88V15.093C14.88 12.0099 14.6455 9.012 14.3915 8.56808C13.5074 6.88365 12.9945 9.21268 12.9945 15.093V20.797H10.1956V10.6721C10.1859 1.429 9.94655 -0.845292 9.06733 0.255369Z" fill="#0000FF"/>
<path d="M69.4248 15.7086C69.1547 15.9924 68.9412 16.3416 68.7994 16.7318C68.6576 17.1219 68.5909 17.5435 68.604 17.9669C68.5991 18.4024 68.6692 18.8346 68.8101 19.238C68.9511 19.6415 69.16 20.0079 69.4245 20.3158C69.6891 20.6237 70.0039 20.8667 70.3505 21.0305C70.697 21.1944 71.0683 21.2757 71.4422 21.2698H78.5351C79.1039 21.2654 79.6674 21.3963 80.1912 21.6546C81.2125 22.1614 82.0258 23.1085 82.4611 24.2978C82.6829 24.9077 82.7953 25.5639 82.7916 26.2262C82.793 27.5673 82.3463 28.8565 81.5459 29.8209C81.1564 30.2869 80.6973 30.6667 80.1912 30.9416C79.673 31.2239 79.1073 31.3684 78.5351 31.3645H67.0332V29.5291H78.5406C78.8929 29.5302 79.2416 29.446 79.5645 29.2818C79.8875 29.1176 80.1775 28.8771 80.4164 28.5754C80.6794 28.2671 80.8863 27.9001 81.0245 27.4964C81.1627 27.0927 81.2295 26.6607 81.2208 26.2262C81.2344 25.8045 81.1695 25.3844 81.0307 24.9946C80.8918 24.6048 80.6823 24.2546 80.4164 23.9679C79.9115 23.4067 79.2385 23.0972 78.5406 23.1052H71.4477C70.8449 23.1124 70.2478 22.9682 69.6972 22.6823C69.1748 22.4129 68.6996 22.0337 68.2953 21.5637C67.8947 21.0967 67.5785 20.5409 67.3655 19.9292C67.1441 19.3072 67.0311 18.6402 67.0332 17.9669C67.0308 17.3128 67.1422 16.665 67.3606 16.0624C67.5791 15.4599 67.9001 14.9151 68.3044 14.461C68.7094 14.0076 69.1852 13.6487 69.7062 13.4037C70.2625 13.1433 70.8572 13.0125 71.4568 13.0189H82.8061V14.8543H71.4568C70.7103 14.8244 69.9826 15.1303 69.4248 15.7086Z" fill="#0000FF"/>
<path d="M85.4355 13.3034V11.4896H86.75V13.3034H85.4355ZM85.4355 32.8932V14.7556H86.75V32.8932H85.4355Z" fill="#0000FF"/>
<path d="M105.15 20.5529C105.159 21.7821 104.944 22.9999 104.517 24.1271C104.113 25.2031 103.529 26.1774 102.799 26.9947C102.072 27.8064 101.222 28.4581 100.291 28.9177C99.2303 29.4289 98.0852 29.6678 96.9358 29.6176C95.7863 29.5674 94.6602 29.2294 93.636 28.6272C92.5867 27.9843 91.6716 27.0864 90.9543 25.9957V32.8931H89.3773V20.5613C89.3676 19.3669 89.5649 18.1823 89.9578 17.0767C90.3506 15.9711 90.931 14.9666 91.6652 14.122C92.3993 13.2775 93.2725 12.6097 94.2335 12.1578C95.1946 11.7059 96.2243 11.4789 97.2625 11.49C98.3036 11.4828 99.3348 11.7234 100.291 12.1965C101.222 12.6568 102.072 13.3092 102.799 14.1215C103.532 14.9427 104.116 15.9231 104.517 17.0059C104.94 18.125 105.155 19.3329 105.15 20.5529ZM103.573 20.5529C103.577 19.5855 103.404 18.6279 103.067 17.7417C102.42 16.0051 101.218 14.6214 99.708 13.877C98.936 13.4942 98.1041 13.2968 97.2634 13.2968C96.4227 13.2968 95.5909 13.4942 94.8188 13.877C93.3093 14.6214 92.1065 16.0051 91.4594 17.7417C91.1267 18.6298 90.9551 19.5868 90.9551 20.554C90.9551 21.5211 91.1267 22.4781 91.4594 23.3662C92.1079 25.1017 93.3103 26.4849 94.8188 27.2309C95.591 27.6129 96.4228 27.81 97.2634 27.81C98.104 27.81 98.9358 27.6129 99.708 27.2309C101.217 26.4849 102.419 25.1017 103.067 23.3662C103.404 22.4792 103.577 21.5209 103.573 20.5529Z" fill="#0000FF"/>
<path d="M115.671 13.0191C116.711 13.0121 117.741 13.2553 118.696 13.7335C119.627 14.1989 120.476 14.8587 121.202 15.68C121.935 16.5104 122.519 17.5018 122.92 18.5967C123.343 19.7303 123.558 20.954 123.552 22.1897H121.976C121.98 21.2115 121.808 20.2432 121.471 19.347C120.824 17.591 119.622 16.1918 118.114 15.4391C117.342 15.0521 116.511 14.8525 115.67 14.8525C114.83 14.8525 113.999 15.0521 113.227 15.4391C111.715 16.1901 110.509 17.5904 109.861 19.3491C109.524 20.2453 109.352 21.2136 109.356 22.1918V31.3646H107.78V22.1918C107.77 20.9839 107.967 19.7859 108.36 18.6678C108.753 17.5496 109.333 16.5339 110.067 15.6798C110.801 14.8258 111.674 14.1506 112.634 13.6937C113.595 13.2369 114.624 13.0075 115.662 13.0191H115.671Z" fill="#0000FF"/>
<path d="M141.954 24.252C141.964 25.4227 141.749 26.5825 141.324 27.6566C140.918 28.6808 140.334 29.6087 139.605 30.3883C138.877 31.1611 138.027 31.7818 137.096 32.22C136.14 32.6705 135.11 32.8996 134.069 32.893C133.031 32.9039 132.001 32.6878 131.039 32.2575C130.078 31.8271 129.205 31.1911 128.471 30.3865C127.736 29.582 127.156 28.6251 126.763 27.5718C126.37 26.5184 126.172 25.3899 126.182 24.252V13.0187H127.761V19.0674H132.018V20.7956H127.761V24.252C127.756 25.174 127.928 26.0868 128.264 26.9319C128.913 28.585 130.115 29.9027 131.624 30.6133C132.396 30.9772 133.228 31.1648 134.068 31.1648C134.909 31.1648 135.741 30.9772 136.513 30.6133C138.022 29.9042 139.225 28.5861 139.872 26.9319C140.209 26.087 140.381 25.1741 140.377 24.252H141.954Z" fill="#0000FF"/>
<path d="M152.55 29.5383C153.278 29.5454 154.001 29.4022 154.685 29.1156C155.665 28.699 156.546 28.0213 157.255 27.1379C157.964 26.2544 158.482 25.1903 158.765 24.0325H160.357C160.172 25.0673 159.827 26.0553 159.338 26.9492C158.861 27.8236 158.27 28.6078 157.585 29.2741C156.175 30.6352 154.391 31.3759 152.55 31.3644C150.437 31.3644 148.411 30.398 146.917 28.6778C145.423 26.9575 144.584 24.6244 144.584 22.1916C144.584 19.7588 145.423 17.4257 146.917 15.7055C148.411 13.9852 150.437 13.0188 152.55 13.0188C154.391 13.0074 156.175 13.7481 157.585 15.1091C158.27 15.7759 158.861 16.5601 159.338 17.434C159.827 18.3281 160.172 19.316 160.357 20.3507H158.765C158.483 19.1934 157.966 18.1299 157.256 17.248C156.547 16.3661 155.666 15.6909 154.685 15.2782C153.187 14.6623 151.543 14.7212 150.081 15.4431C148.555 16.1941 147.34 17.5939 146.688 19.351C146.351 20.2491 146.178 21.2168 146.178 22.1948C146.178 23.1728 146.351 24.1404 146.688 25.0386C147.341 26.7946 148.556 28.1938 150.081 28.9465C150.859 29.3403 151.7 29.5419 152.55 29.5383Z" fill="#0000FF"/>
</svg>
